# xmcd CD database file
#
# Track frame offsets:
#	150
#	15870
#	28253
#	41819
#	56608
#	70533
#	82124
#	93967
#	109089
#	123742
#	138676
#	151268
#	166126
#	181543
#
# Disc length: 2588 seconds
#
# Revision: 0
# Processed by: cddbd v1.5.2PL0 Copyright (c) Steve Scherf et al.
# Submitted via: CDex 1.51
#
DISCID=af0a1a0e
DTITLE=VARIOS INTERPRETES - BAILÃO SERTANEJO VOL. 1
DYEAR=2002
DGENRE=Country
TTITLE0=Remelexo - Rick and Renner
TTITLE1=Mocinhas da cidade - Fred and Pedrito
TTITLE2=Abre a janela - Guilherme and Gustavo
TTITLE3=Gol do coração - Gian and Giovani
TTITLE4=Tô facim - Roby and Roger
TTITLE5=Saudade - João Pedro and Cristiano
TTITLE6=Agarra agarra - Ludy and Júnior
TTITLE7=Macaco velho - Gino and Geno
TTITLE8=Sete dias - Gian and Giovani
TTITLE9=Cachaça - Rick and Renner
TTITLE10=Recortado paulista (Vira pra lá) - Fred and Pedrito
TTITLE11=Mulher de amigo meu - Guilherme and Gustavo
TTITLE12=Pra ficar dez - Rick and Renner
TTITLE13=Cospe grosso - Gian and Giovani
EXTD=YEAR: 2002
EXTT0=
EXTT1=
EXTT2=
EXTT3=
EXTT4=
EXTT5=
EXTT6=
EXTT7=
EXTT8=
EXTT9=
EXTT10=
EXTT11=
EXTT12=
EXTT13=
PLAYORDER=
